<svg width="13" height="13" xmlns="http://www.w3.org/2000/svg" xmlns:xlink="http://www.w3.org/1999/xlink"><g transform="translate(-2320 958)"><use xlink:href="#path0_fill" transform="translate(2320 -959)" fill="#9FADC1"/><mask id="a"><use xlink:href="#path0_fill" fill="#fff" transform="translate(2320 -959)"/></mask><g mask="url(#a)"><use xlink:href="#path1_stroke_2x" transform="translate(2320 -959)" fill="#FCFCFE"/></g></g><defs><path id="path0_fill" d="M7.96875 8.97656C8.65625 8.28906 9 7.46354 9 6.5c0-.96354-.34375-1.78646-1.03125-2.46875C7.28646 3.34375 6.46354 3 5.5 3c-.96354 0-1.78906.34375-2.47656 1.03125C2.34115 4.71354 2 5.53646 2 6.5c0 .96354.34115 1.78906 1.02344 2.47656C3.71094 9.65885 4.53646 10 5.5 10c.96354 0 1.78646-.34115 2.46875-1.02344zM13 13c0 .2708-.099.5052-.2969.7031C12.5052 13.901 12.2708 14 12 14c-.2812 0-.5156-.099-.7031-.2969l-2.67971-2.6718C7.6849 11.6771 6.64583 12 5.5 12c-.74479 0-1.45833-.1432-2.14063-.4297-.67708-.2917-1.26302-.6823-1.75781-1.1719C1.11198 9.90365.721354 9.31771.429688 8.64063.143229 7.95833 0 7.24479 0 6.5c0-.74479.143229-1.45573.429688-2.13281.291666-.68229.682292-1.26823 1.171872-1.75781.49479-.4948 1.08073-.88542 1.75781-1.17188C4.04167 1.14583 4.75521 1 5.5 1c.74479 0 1.45573.14583 2.13281.4375.68229.28646 1.26823.67708 1.75781 1.17188.4948.48958.88538 1.07552 1.17188 1.75781C10.8542 5.04427 11 5.75521 11 6.5c0 1.14583-.3229 2.1849-.9687 3.11719l2.6796 2.67971c.1927.1927.2891.4271.2891.7031z"/><path id="path1_stroke_2x" d="M7.96875 8.97656l-.35355-.35355.35355.35355zm0-4.94531l-.35491.35222.0027.00268.35221-.3549zm-4.94531 0l.35355.35355-.35355-.35355zm0 4.94531l-.35491.35222.0027.00268.35221-.3549zm9.67966 4.72654l.3536.3536-.3536-.3536zm-1.4062 0l.363-.3438-.0049-.0052-.0051-.005-.353.354zm-2.67971-2.6718l.35303-.3541-.29514-.2943-.34262.2373.28473.4111zm-5.25782.539l-.19782.4592.00427.0018.19355-.461zm-1.75781-1.1719l-.35544.3517.00376.0038.35168-.3555zM.429688 8.64063l-.4610364.19356.0018296.00425.4592068-.19781zm0-4.27344l-.4597576-.19654-.0007265.00172.4604841.19482zM1.60156 2.60938l.35356.35355-.35356-.35355zM3.35937 1.4375l.19483.46049.00171-.00074-.19654-.45975zm4.27344 0l-.19782.45923.00427.00179.19355-.46102zm1.75781 1.17188l-.35543.35169.00376.00372.35167-.35541zm1.17188 1.75781l-.461.19356.0018.00425.4592-.19781zm-.5312 5.25l-.41106-.28473-.2377.34313.29516.29515.3536-.35355zm2.6796 2.67971l.3536-.3536-.3536.3536zM8.3223 9.33012C9.10262 8.5498 9.5 7.59749 9.5 6.5h-1c0 .82959-.29012 1.52832-.8848 2.12301l.7071.70711zM9.5 6.5c0-1.09759-.39751-2.04803-1.17904-2.82365l-.70442.7098C8.21001 4.97512 8.5 5.67051 8.5 6.5h1zM8.32365 3.67904C7.54803 2.89751 6.59759 2.5 5.5 2.5v1c.82949 0 1.52488.28999 2.11385.88346l.7098-.70442zM5.5 2.5c-1.09749 0-2.0498.39738-2.83012 1.1777l.70711.7071C3.97168 3.79012 4.67041 3.5 5.5 3.5v-1zM2.66988 3.6777C1.89397 4.45361 1.5 5.40364 1.5 6.5h1c0-.83072.28832-1.52652.87699-2.1152l-.70711-.7071zM1.5 6.5c0 1.09627.39385 2.04816 1.16854 2.82877l.70979-.70441C2.78844 8.02996 2.5 7.33082 2.5 6.5h-1zm1.17123 2.83146C3.45184 10.1061 4.40373 10.5 5.5 10.5v-1c-.83082 0-1.52996-.28844-2.12436-.87833l-.70441.70979zM5.5 10.5c1.09636 0 2.04639-.394 2.8223-1.16988l-.7071-.70711C7.02652 9.21168 6.33072 9.5 5.5 9.5v1zm7 2.5c0 .1333-.0428.2419-.1504.3496l.7071.7071c.2882-.2882.4433-.6484.4433-1.0567h-1zm-.1504.3496c-.1077.1076-.2163.1504-.3496.1504v1c.4083 0 .7685-.1551 1.0567-.4433l-.7071-.7071zM12 13.5c-.1488 0-.2504-.046-.3401-.1407l-.726.6877c.2852.3011.6524.453 1.0661.453v-1zm-.3501-.1509l-2.67968-2.6719-.70607.7081 2.67965 2.6719.7061-.7081zm-3.31744-2.7289c-.86666.6074-1.76167.8855-2.83246.8798v1c1.22088-.0057 2.40399-.3735 3.40191-1.0577l-.56945-.8221zM5.5 11.5c-.69535.0025-1.31163-.1212-1.94707-.3907l-.38711.922c.72914.3035 1.53994.4662 2.33418.4687v-1zm-1.94281-.3889c-.63634-.2719-1.14487-.6106-1.60395-1.0681l-.70336.7109c.5305.5216 1.19385.9642 1.91168 1.2756l.39563-.9184zm-1.60021-1.0643c-.45749-.45912-.79621-.96765-1.068086-1.60399l-.9184128.39563C.281935 9.55627.724471 10.2196 1.24614 10.7501l.71084-.7033zM.890704 8.44707C.621222 7.81163.497549 7.19535.5 6.5h-1c.002451.79424.165237 1.60504.4686713 2.33418l.9220327-.38711zM.5 6.5c-.002468-.69517.120968-1.3082.390171-1.93799l-.9209671-.38964C-.33451 4.89674-.497532 5.70559-.5 6.5h1zm.389441-1.93628c.271659-.64087.609209-1.14777 1.065679-1.60079l-.70711-.70711C.725308 2.78196.281604 3.44695-.0300664 4.17065l.9195074.39307zM1.95512 2.96293c.45823-.46168.9643-.79878 1.59908-1.06495L3.16455.977017c-.71939.306753-1.38519.750893-1.91654 1.278803l.70711.70711zm1.60079-1.06568C4.19076 1.62309 4.80552 1.49746 5.5 1.5v-1c-.79511.002538-1.60742.168578-2.33716.477747l.39307.919503zM5.5 1.5c.6943-.00256 1.3058.12283 1.935.39671l.39562-.918416C7.10565.66884 6.29529.502556 5.5.5v1zm1.93926.39852c.63932.26596 1.14377.60189 1.59595 1.06253l.71083-.70335c-.52698-.52895-1.19441-.97426-1.91967-1.281216l-.38711.922036zm1.59969 1.06627c.46064.45218.79657.95663 1.06255 1.59595l.922-.38711c-.3069-.72526-.7523-1.39269-1.2812-1.91967l-.70335.71083zM10.1033 4.565c.2739.6292.3993 1.2407.3967 1.935h1c-.0026-.79529-.1688-1.60565-.4783-2.33062l-.9184.39562zM10.5 6.5c.0057 1.07079-.2724 1.96581-.87976 2.83246l.82206.56945C11.1265 8.90399 11.4943 7.72088 11.5 6.5h-1zm-.8223 3.47074l2.6797 2.67966.7071-.7071-2.6797-2.67967-.7071.70711zm2.6797 2.67966c.0976.0976.1426.2042.1426.3496h1c0-.4067-.1477-.7689-.4355-1.0567l-.7071.7071z"/></defs></svg>