<svg width="10" height="12" viewBox="0 0 10 12" version="1.1" xmlns="http://www.w3.org/2000/svg" xmlns:xlink="http://www.w3.org/1999/xlink">
<title>&#239;&#128;&#135;</title>
<desc>Created using Figma</desc>
<g id="Canvas" transform="translate(-3562 985)">
<g id="&#239;&#128;&#135;">
<use xlink:href="#path0_fill" transform="translate(3562 -986)" fill="#9FADC1"/>
</g>
</g>
<defs>
<path id="path0_fill" d="M 10 10.9297C 10 11.4974 9.83594 11.9844 9.50781 12.3906C 9.1849 12.7969 8.79427 13 8.33594 13L 1.66406 13C 1.20573 13 0.8125 12.7969 0.484375 12.3906C 0.161458 11.9844 0 11.4974 0 10.9297C 0 10.487 0.0208333 10.0703 0.0625 9.67969C 0.109375 9.28385 0.192708 8.88802 0.3125 8.49219C 0.432292 8.09115 0.583333 7.75 0.765625 7.46875C 0.953125 7.18229 1.19792 6.95052 1.5 6.77344C 1.80729 6.59115 2.15885 6.5 2.55469 6.5C 3.23698 7.16667 4.05208 7.5 5 7.5C 5.94792 7.5 6.76302 7.16667 7.44531 6.5C 7.84115 6.5 8.1901 6.59115 8.49219 6.77344C 8.79948 6.95052 9.04427 7.18229 9.22656 7.46875C 9.41406 7.75 9.56771 8.09115 9.6875 8.49219C 9.80729 8.88802 9.88802 9.28385 9.92969 9.67969C 9.97656 10.0703 10 10.487 10 10.9297ZM 7.11719 1.88281C 7.70573 2.46615 8 3.17187 8 4C 8 4.82813 7.70573 5.53646 7.11719 6.125C 6.53385 6.70833 5.82812 7 5 7C 4.17187 7 3.46354 6.70833 2.875 6.125C 2.29167 5.53646 2 4.82813 2 4C 2 3.17187 2.29167 2.46615 2.875 1.88281C 3.46354 1.29427 4.17187 1 5 1C 5.82812 1 6.53385 1.29427 7.11719 1.88281Z"/>
</defs>
</svg>
