<svg width="13" height="10" viewBox="0 0 13 10" version="1.1" xmlns="http://www.w3.org/2000/svg" xmlns:xlink="http://www.w3.org/1999/xlink">
<title>&#239;&#130;&#139;</title>
<desc>Created using Figma</desc>
<g id="Canvas" transform="translate(-3560 944)">
<g id="&#239;&#130;&#139;">
<use xlink:href="#path0_fill" transform="translate(3560 -946)" fill="#9FADC1"/>
</g>
</g>
<defs>
<path id="path0_fill" d="M 5 11.25C 5 11.2708 5.0026 11.3229 5.00781 11.4063C 5.01302 11.4896 5.01302 11.5599 5.00781 11.6172C 5.00781 11.6693 5 11.7292 4.98438 11.7969C 4.97396 11.8646 4.94792 11.9167 4.90625 11.9531C 4.86979 11.9844 4.81771 12 4.75 12L 2.25 12C 1.63021 12 1.09896 11.7812 0.65625 11.3438C 0.21875 10.901 0 10.3698 0 9.75L 0 4.25C 0 3.63021 0.21875 3.10156 0.65625 2.66406C 1.09896 2.22135 1.63021 2 2.25 2L 4.75 2C 4.81771 2 4.875 2.02604 4.92188 2.07812C 4.97396 2.125 5 2.18229 5 2.25C 5 2.27083 5.0026 2.32292 5.00781 2.40625C 5.01302 2.48958 5.01302 2.5599 5.00781 2.61719C 5.00781 2.66927 5 2.72917 4.98438 2.79687C 4.97396 2.86458 4.94792 2.91667 4.90625 2.95312C 4.86979 2.98437 4.81771 3 4.75 3L 2.25 3C 1.90625 3 1.61198 3.1224 1.36719 3.36719C 1.1224 3.61198 1 3.90625 1 4.25L 1 9.75C 1 10.0937 1.1224 10.388 1.36719 10.6328C 1.61198 10.8776 1.90625 11 2.25 11L 4.5 11C 4.50521 11 4.53385 11 4.58594 11C 4.63802 11 4.67188 11 4.6875 11C 4.70312 11 4.73177 11.0026 4.77344 11.0078C 4.82031 11.013 4.85156 11.0208 4.86719 11.0313C 4.88281 11.0417 4.90365 11.0573 4.92969 11.0781C 4.95573 11.0938 4.97396 11.1172 4.98438 11.1484C 4.99479 11.1745 5 11.2083 5 11.25ZM 12.1016 6.64844C 12.2005 6.7474 12.25 6.86458 12.25 7C 12.25 7.13542 12.2005 7.2526 12.1016 7.35156L 7.85156 11.6016C 7.7526 11.7005 7.63542 11.75 7.5 11.75C 7.36458 11.75 7.2474 11.7005 7.14844 11.6016C 7.04948 11.5026 7 11.3854 7 11.25L 7 9L 3.5 9C 3.36458 9 3.2474 8.95052 3.14844 8.85156C 3.04948 8.7526 3 8.63542 3 8.5L 3 5.5C 3 5.36458 3.04948 5.2474 3.14844 5.14844C 3.2474 5.04948 3.36458 5 3.5 5L 7 5L 7 2.75C 7 2.61458 7.04948 2.4974 7.14844 2.39844C 7.2474 2.29948 7.36458 2.25 7.5 2.25C 7.63542 2.25 7.7526 2.29948 7.85156 2.39844L 12.1016 6.64844Z"/>
</defs>
</svg>
