<svg width="12" height="12" viewBox="0 0 12 12" version="1.1" xmlns="http://www.w3.org/2000/svg" xmlns:xlink="http://www.w3.org/1999/xlink">
<title>&#239;&#128;&#133;</title>
<desc>Created using Figma</desc>
<g id="Canvas" transform="translate(-8648 944)">
<g id="&#239;&#128;&#133;">
<use xlink:href="#path0_fill" transform="translate(8648 -943)" fill="#F2C94C"/>
</g>
</g>
<defs>
<path id="path0_fill" d="M 11.1429 4.04688C 11.1429 3.84598 10.9286 3.76562 10.7679 3.73884L 7.40625 3.25L 5.89955 0.203125C 5.83929 0.0758932 5.72545 -0.0714288 5.57143 -0.0714288C 5.41741 -0.0714288 5.30357 0.0758932 5.2433 0.203125L 3.73661 3.25L 0.375 3.73884C 0.207589 3.76562 0 3.84598 0 4.04688C 0 4.16741 0.0870536 4.28125 0.167411 4.3683L 2.60491 6.73884L 2.02902 10.0871C 2.02232 10.1339 2.01562 10.1741 2.01562 10.221C 2.01562 10.3951 2.10268 10.5558 2.29688 10.5558C 2.39062 10.5558 2.47768 10.5223 2.56473 10.4754L 5.57143 8.89509L 8.57812 10.4754C 8.65848 10.5223 8.75223 10.5558 8.84598 10.5558C 9.04018 10.5558 9.12054 10.3951 9.12054 10.221C 9.12054 10.1741 9.12054 10.1339 9.11384 10.0871L 8.53795 6.73884L 10.9688 4.3683C 11.0558 4.28125 11.1429 4.16741 11.1429 4.04688Z"/>
</defs>
</svg>
